HIERARCHY
ROOT hip
{
	OFFSET 0.000000 0.000000 0.000000 
	CHANNELS 6 Xposition Yposition Zposition Zrotation Xrotation Yrotation
	JOINT abdomen
	{
		OFFSET 0.000000 3.402643 0.000000 
		CHANNELS 3 Zrotation Xrotation Yrotation
		JOINT chest
		{
			OFFSET 0.000000 8.438565 -0.680529 
			CHANNELS 3 Zrotation Xrotation Yrotation
			JOINT neck
			{
				OFFSET 0.000000 10.207942 -0.272212 
				CHANNELS 3 Zrotation Xrotation Yrotation
				JOINT head
				{
					OFFSET 0.000000 3.130431 0.000000 
					CHANNELS 3 Zrotation Xrotation Yrotation
					End Site
					{
						OFFSET 0.000000 3.130435 0.000000 
					}
				}
			}
			JOINT lCollar
			{
				OFFSET 3.470700 6.669187 -0.816635 
				CHANNELS 3 Zrotation Xrotation Yrotation
				JOINT lShldr
				{
					OFFSET 3.198488 0.000000 0.000000 
					CHANNELS 3 Zrotation Xrotation Yrotation
					JOINT lForeArm
					{
						OFFSET 10.139888 0.000000 0.000000 
						CHANNELS 3 Zrotation Xrotation Yrotation
						JOINT lHand
						{
							OFFSET 8.370511 0.000000 0.000000 
							CHANNELS 3 Zrotation Xrotation Yrotation
							End Site
							{
								OFFSET 4.083176 0.000000 0.000000 
							}
						}
					}
				}
			}
			JOINT rCollar
			{
				OFFSET -3.470700 6.669187 -0.816635 
				CHANNELS 3 Zrotation Xrotation Yrotation
				JOINT rShldr
				{
					OFFSET -3.198488 0.000000 0.000000 
					CHANNELS 3 Zrotation Xrotation Yrotation
					JOINT rForeArm
					{
						OFFSET -10.139888 0.000000 0.000000 
						CHANNELS 3 Zrotation Xrotation Yrotation
						JOINT rHand
						{
							OFFSET -8.370511 0.000000 0.000000 
							CHANNELS 3 Zrotation Xrotation Yrotation
							End Site
							{
								OFFSET -4.083176 0.000000 0.000000 
							}
						}
					}
				}
			}
		}
	}
	JOINT lThigh
	{
		OFFSET 5.308129 -1.633274 1.361059 
		CHANNELS 3 Zrotation Xrotation Yrotation
		JOINT lShin
		{
			OFFSET -2.041588 -20.007561 0.000000 
			CHANNELS 3 Zrotation Xrotation Yrotation
			JOINT lFoot
			{
				OFFSET 0.000000 -19.190928 -1.224953 
				CHANNELS 3 Zrotation Xrotation Yrotation
				End Site
				{
					OFFSET 0.000000 -2.449906 4.627600 
				}
			}
		}
	}
	JOINT rThigh
	{
		OFFSET -5.308129 -1.633274 1.361059 
		CHANNELS 3 Zrotation Xrotation Yrotation
		JOINT rShin
		{
			OFFSET 2.041588 -20.007561 0.000000 
			CHANNELS 3 Zrotation Xrotation Yrotation
			JOINT rFoot
			{
				OFFSET 0.000000 -19.190928 -1.224953 
				CHANNELS 3 Zrotation Xrotation Yrotation
				End Site
				{
					OFFSET 0.000000 -2.449906 4.627600 
				}
			}
		}
	}
}
MOTION
Frames: 18
Frame Time: 0.033333
0.714969 51.021950 -2.652823 -1.103937 -1.581757 -3.614460 -0.000000 -0.000002 -0.000000 -0.872564 5.077541 -13.907178 1.469998 -12.427677 18.051041 -0.954937 -15.993991 -0.145955 -2.000757 -0.069240 1.990978 -44.229294 -17.143360 -63.655067 5.302774 2.108916 -118.792152 -16.274590 -19.194445 15.583746 1.990970 -0.069577 -2.000746 77.054832 8.572884 1.086358 -3.871122 14.508565 16.699291 20.152750 -7.808504 3.420435 10.193459 -8.091363 14.903234 -3.543439 21.575331 1.270137 -2.536489 -8.265540 -4.382368 -5.045846 -1.127379 2.857294 3.936231 12.362651 1.826038 -2.890585 -14.776021 -12.237479 
0.719861 51.016502 -2.657867 -1.074644 -1.611066 -3.585099 -0.000000 -0.000002 -0.000000 -0.881992 4.794355 -13.910802 1.509941 -12.417700 18.078924 -0.954937 -15.993991 -0.145955 -2.000757 -0.069240 1.990978 -45.144962 -17.052290 -64.050552 5.287019 2.094493 -118.956169 -17.454151 -19.191570 15.313487 1.990970 -0.069577 -2.000746 77.048286 8.602843 0.800017 -3.878706 14.506652 16.729483 20.131878 -7.808585 3.410568 10.151344 -8.053111 14.871591 -3.533386 21.586462 1.258309 -2.548167 -8.331379 -4.404389 -4.891867 -1.098956 2.861635 3.896038 12.446234 1.841485 -3.075190 -14.861021 -12.295521 
0.724900 51.010788 -2.663102 -1.045345 -1.630585 -3.555318 -0.000000 -0.000002 -0.000000 -0.901194 4.481873 -13.923866 1.042910 -10.515879 18.022394 -0.954937 -15.993991 -0.145955 -2.000757 -0.069240 1.990978 -45.986458 -15.987720 -63.294945 5.280761 2.074164 -119.130219 -18.959568 -19.414621 15.147777 1.990970 -0.069577 -2.000746 77.046318 8.652039 0.484024 -3.886250 14.504603 16.759678 20.102547 -7.808006 3.410574 10.140518 -8.005404 14.853013 -3.543719 21.585186 1.270129 -2.565594 -8.400200 -4.439807 -4.926444 -1.068632 2.852981 3.938452 12.536193 1.816727 -3.099782 -14.978526 -12.321655 
0.730071 51.004627 -2.668551 -1.016046 -1.650157 -3.544886 -0.000000 -0.000002 -0.000000 -0.910579 4.140111 -13.928396 0.058994 -6.669921 17.907249 -0.954937 -15.993991 -0.145955 -2.000757 -0.069240 1.990978 -46.801552 -13.976379 -61.398746 5.240237 1.990729 -119.981575 -20.819212 -19.817947 14.988677 1.990970 -0.069577 -2.000746 77.042625 8.691393 0.118551 -3.896744 14.512033 16.790600 20.093374 -7.817756 3.410664 10.114124 -7.941020 14.859639 -3.529679 21.596243 1.237999 -2.547286 -8.484872 -4.437954 -4.970525 -1.030760 2.824718 3.970546 12.607911 1.822987 -3.120192 -15.074167 -12.325168 
0.735362 50.998203 -2.674167 -0.986747 -1.669684 -3.515249 -0.000000 -0.000002 -0.000000 -0.929734 3.759278 -13.933179 -1.182312 -1.933188 17.850739 -0.954937 -15.993991 -0.145955 -2.000757 -0.069240 1.990978 -47.711636 -11.607270 -58.955460 5.196170 1.898555 -120.998230 -23.011976 -20.307011 14.722882 1.990970 -0.069577 -2.000746 77.041107 8.769397 -0.256910 -3.901389 14.500686 16.820057 20.072495 -7.817835 3.400796 10.092188 -7.892961 14.829515 -3.540844 21.624527 1.249788 -2.568910 -8.571420 -4.481367 -4.989139 -0.981955 2.838984 3.999890 12.660625 1.809297 -3.162872 -15.185540 -12.351432 
0.740746 50.991497 -2.679953 -0.957452 -1.698980 -3.485420 -0.000000 -0.000002 -0.000000 -0.968470 3.368664 -13.937390 -2.592900 3.560811 17.905289 -0.954937 -15.993991 -0.145955 -2.000757 -0.069240 1.990978 -48.710323 -8.824558 -55.870934 5.142589 1.808190 -121.926758 -25.513090 -20.795507 14.246570 1.990970 -0.069577 -2.000746 77.051697 8.827474 -0.642375 -3.906410 14.499292 16.840189 20.043238 -7.818410 3.400808 10.072783 -7.827170 14.787617 -3.535136 21.645916 1.268010 -2.592542 -8.656194 -4.506009 -5.016482 -0.923198 2.824333 4.002260 12.742026 1.799260 -3.187934 -15.275249 -12.343235 
0.746210 50.984531 -2.685884 -0.928151 -1.718539 -3.455729 -0.000000 -0.000002 -0.000000 -0.997423 2.958539 -13.952420 -4.045011 9.089005 18.130257 -0.954937 -15.993991 -0.145955 -2.000757 -0.069240 1.990978 -49.857124 -6.005220 -52.547222 5.107108 1.748947 -122.594719 -28.265261 -21.215750 13.530352 1.990970 -0.069577 -2.000746 77.038910 8.914340 -1.057699 -3.913988 14.497359 16.870377 20.062174 -7.808663 3.400714 10.044348 -7.752254 14.770927 -3.541891 21.674202 1.259408 -2.595603 -8.757573 -4.506630 -5.062743 -0.864284 2.808443 4.043499 12.801042 1.793969 -3.212250 -15.390093 -12.371750 
0.751738 50.977478 -2.691928 -0.898851 -1.738071 -3.416090 -0.000000 -0.000002 -0.000000 -1.016623 2.538666 -13.958871 -5.375709 14.032269 18.435072 -0.954937 -15.993991 -0.145955 -2.000757 -0.069240 1.990978 -51.143959 -3.440812 -49.329033 5.095125 1.722662 -122.914635 -31.187815 -21.558323 12.614217 1.990970 -0.069577 -2.000746 77.046432 8.981451 -1.473144 -3.914374 14.507308 16.861042 20.062174 -7.808663 3.400714 10.031325 -7.693971 14.732357 -3.556968 21.692675 1.291567 -2.624999 -8.869515 -4.542127 -5.077877 -0.806973 2.784570 4.054457 12.868983 1.802447 -3.252126 -15.506743 -12.409724 
0.757314 50.970169 -2.698084 -0.869550 -1.757630 -3.386057 -0.000000 -0.000002 -0.000000 -1.045636 2.118791 -13.965243 -6.432679 17.814247 18.772366 -0.954937 -15.993991 -0.145955 -2.000757 -0.069240 1.990978 -52.451393 -1.319221 -46.441742 5.098639 1.731249 -122.759178 -34.115253 -21.831978 11.614874 1.990970 -0.069577 -2.000746 77.047691 9.076804 -1.898785 -3.911448 14.497962 16.860312 20.072495 -7.817835 3.400796 9.990081 -7.617930 14.724933 -3.537347 21.734289 1.258105 -2.637259 -8.957763 -4.564007 -5.113457 -0.748008 2.779327 4.074668 12.924804 1.780592 -3.277397 -15.625335 -12.396329 
0.762924 50.962749 -2.704342 -0.840248 -1.777156 -3.356138 -0.000000 -0.000002 -0.000000 -1.084455 1.689149 -13.972119 -6.979633 19.863415 19.001936 -0.954937 -15.993991 -0.145955 -2.000757 -0.069240 1.990978 -53.664616 0.167914 -44.238510 5.098867 1.752859 -122.613930 -36.914158 -22.112644 10.634059 1.990970 -0.069577 -2.000746 77.058624 9.172323 -2.314770 -3.908930 14.498627 16.850248 20.083015 -7.808006 3.410579 9.968777 -7.570067 14.685296 -3.568622 21.749882 1.283777 -2.637247 -9.051504 -4.579832 -5.145916 -0.699829 2.753293 4.106793 12.985980 1.796435 -3.318387 -15.740211 -12.436179 
0.768547 50.955334 -2.710656 -0.810946 -1.796713 -3.326208 -0.000000 -0.000002 -0.000000 -1.113554 1.279056 -13.998818 -6.819429 19.519972 18.976582 -0.954937 -15.993991 -0.145955 -2.000757 -0.069240 1.990978 -53.942970 -0.402955 -44.649815 5.139207 1.800730 -122.062744 -38.979820 -22.835402 9.744984 1.990970 -0.069577 -2.000746 77.057533 9.257383 -2.711117 -3.906410 14.499292 16.840189 20.081675 -7.808086 3.400705 9.951258 -7.509827 14.692723 -3.555393 21.790497 1.251600 -2.680840 -9.131942 -4.604905 -5.169291 -0.630952 2.720599 4.106009 13.047906 1.786652 -3.342588 -15.854980 -12.464129 
0.774167 50.947922 -2.717046 -0.791414 -1.816255 -3.296704 -0.000000 -0.000002 -0.000000 -1.132946 0.878735 -14.006061 -6.036096 17.311638 18.696764 -0.954937 -15.993991 -0.145955 -2.000757 -0.069240 1.990978 -53.372532 -2.545442 -47.013744 5.179860 1.885278 -121.162331 -40.545773 -23.926563 8.616483 1.990970 -0.069577 -2.000746 77.059280 9.341863 -3.117559 -3.903911 14.500022 16.830130 20.093374 -7.817756 3.410664 9.947673 -7.455799 14.645696 -3.570549 21.818514 1.273973 -2.647481 -9.224318 -4.613471 -5.202034 -0.563364 2.696907 4.137730 13.089368 1.782315 -3.350435 -15.956360 -12.462290 
0.779779 50.940414 -2.723472 -0.762110 -1.835798 -3.256838 -0.000000 -0.000002 -0.000000 -1.162152 0.497944 -14.013554 -4.787939 13.353356 18.275423 -0.954937 -15.993991 -0.145955 -2.000757 -0.069240 1.990978 -52.776524 -5.078858 -49.796703 5.240237 1.990729 -119.981575 -42.142155 -24.897026 7.152057 1.990970 -0.069577 -2.000746 77.057343 9.425527 -3.494501 -3.903911 14.500022 16.830130 20.102547 -7.808006 3.410574 9.905025 -7.369507 14.607133 -3.581829 21.847141 1.295565 -2.691779 -9.339016 -4.659693 -5.224869 -0.514015 2.701331 4.139755 13.170272 1.792408 -3.362795 -16.049770 -12.488812 
0.785347 50.933102 -2.729920 -0.732806 -1.855324 -3.226851 -0.000000 -0.000002 -0.000000 -1.181644 0.146458 -14.020420 -3.276114 8.248397 17.882778 -0.954937 -15.993991 -0.145955 -2.000757 -0.069240 1.990978 -52.167458 -7.857302 -52.812702 5.305501 2.140415 -118.491646 -43.787697 -25.626091 5.319476 1.990970 -0.069577 -2.000746 77.050743 9.520073 -3.832151 -3.901389 14.500686 16.820057 20.113653 -7.807930 3.420445 9.881796 -7.320798 14.586589 -3.592431 21.865269 1.298155 -2.697589 -9.412252 -4.668466 -5.264836 -0.465478 2.674984 4.169179 13.222677 1.788228 -3.410915 -16.139969 -12.505879 
0.790866 50.925869 -2.736370 -0.703502 -1.874883 -3.196846 -0.000000 -0.000002 -0.000000 -1.201177 -0.175739 -14.027123 -1.632410 2.498979 17.629791 -0.954937 -15.993991 -0.145955 -2.000757 -0.069240 1.990978 -51.650513 -10.783767 -55.972713 5.408854 2.309512 -116.664474 -45.480618 -26.030697 3.130315 1.990970 -0.069577 -2.000746 77.039528 9.603555 -4.140151 -3.899065 14.501914 16.810040 20.122082 -7.808006 3.410567 9.847683 -7.271834 14.554636 -3.571869 21.868496 1.293421 -2.732953 -9.493081 -4.696061 -5.402494 -0.417160 2.652124 4.211429 13.302760 1.753232 -3.347901 -16.294868 -12.490698 
0.796316 50.918903 -2.742818 -0.674196 -1.894402 -3.157168 -0.000000 -0.000002 -0.000000 -1.201213 -0.468650 -14.033267 0.009783 -3.408207 17.578705 -0.954937 -15.993991 -0.145955 -2.000757 -0.069240 1.990978 -51.195763 -13.776731 -59.195042 5.483332 2.523260 -114.506950 -47.184032 -26.053316 0.630470 1.990970 -0.069577 -2.000746 77.041435 9.678855 -4.408576 -3.896331 14.501953 16.799931 20.131878 -7.808585 3.410568 9.849192 -7.253402 14.552281 -3.603867 21.903065 1.300231 -2.701661 -9.547313 -4.711821 -5.422777 -0.397747 2.653155 4.232118 13.377988 1.760405 -3.358566 -16.391251 -12.493928 
0.801684 50.912014 -2.749232 -0.654662 -1.904176 -3.127316 -0.000000 -0.000002 -0.000000 -1.211029 -0.702969 -14.038296 1.581940 -8.990770 17.776501 -0.954937 -15.993991 -0.145955 -2.000757 -0.069240 1.990978 -50.856995 -16.736982 -62.435005 5.579703 2.756140 -112.060310 -48.883118 -25.639420 -2.112357 1.990970 -0.069577 -2.000746 77.037315 9.753736 -4.637491 -3.893830 14.502684 16.789869 20.142950 -7.807925 3.420434 9.820523 -7.216275 14.503805 -3.604596 21.931957 1.280699 -2.710125 -9.617217 -4.703506 -5.451586 -0.358801 2.626489 4.252830 13.453209 1.767546 -3.381801 -16.479340 -12.542237 
0.806949 50.905502 -2.755591 -0.625352 -1.923736 -3.097165 -0.000000 -0.000002 -0.000000 -1.211087 -0.898237 -14.052189 2.955778 -13.742158 18.173935 -0.954937 -15.993991 -0.145955 -2.000757 -0.069240 1.990978 -50.636955 -19.595577 -65.607574 5.665755 3.032599 -109.363129 -50.511028 -24.830393 -4.950871 1.990970 -0.069577 -2.000746 77.012177 9.809000 -4.806758 -3.891290 14.503275 16.779804 20.142357 -7.798178 3.420347 9.798630 -7.196681 14.497742 -3.626353 21.969513 1.323882 -2.715257 -9.668142 -4.757104 -5.490005 -0.358563 2.614224 4.295368 13.532895 1.742130 -3.397283 -16.551714 -12.521890 
